<mxfile host="app.diagrams.net" modified="2021-03-21T13:03:41.679Z" agent="5.0 (Macintosh; Intel Mac OS X 10_16_0) AppleWebKit/537.36 (KHTML, like Gecko) Chrome/81.0.4044.138 Safari/537.36" etag="uzHMWAZaTwyc62oKmX1m" version="14.4.9" type="github">
  <diagram id="UqTuNSZPMI2-N43BV-Rx" name="Page-1">
    <mxGraphModel dx="2354" dy="885" grid="1" gridSize="10" guides="1" tooltips="1" connect="1" arrows="1" fold="1" page="1" pageScale="1" pageWidth="827" pageHeight="1169" math="0" shadow="0">
      <root>
        <mxCell id="0" />
        <mxCell id="1" parent="0" />
        <mxCell id="uaOKmfhLv-BE1sPc9Rkf-12" value="" style="rounded=0;whiteSpace=wrap;html=1;fillColor=#dae8fc;strokeColor=#6c8ebf;" vertex="1" parent="1">
          <mxGeometry x="90" y="290" width="530" height="90" as="geometry" />
        </mxCell>
        <mxCell id="uaOKmfhLv-BE1sPc9Rkf-1" value="用户登录接口UserAccountController" style="rounded=0;whiteSpace=wrap;html=1;fillColor=#f5f5f5;strokeColor=#666666;fontColor=#333333;" vertex="1" parent="1">
          <mxGeometry x="-10" y="160" width="630" height="60" as="geometry" />
        </mxCell>
        <mxCell id="uaOKmfhLv-BE1sPc9Rkf-3" value="登录鉴权拦截器（AuthorityFilter）" style="rounded=0;whiteSpace=wrap;html=1;fillColor=#dae8fc;strokeColor=#6c8ebf;" vertex="1" parent="1">
          <mxGeometry x="90" y="230" width="530" height="50" as="geometry" />
        </mxCell>
        <mxCell id="uaOKmfhLv-BE1sPc9Rkf-4" value="SpringSecurity&lt;br&gt;Config&lt;br&gt;框架配置&lt;br&gt;" style="rounded=0;whiteSpace=wrap;html=1;fillColor=#dae8fc;strokeColor=#6c8ebf;" vertex="1" parent="1">
          <mxGeometry x="-10" y="230" width="90" height="150" as="geometry" />
        </mxCell>
        <mxCell id="uaOKmfhLv-BE1sPc9Rkf-5" value="Authority认证" style="rounded=0;whiteSpace=wrap;html=1;fillColor=#bac8d3;strokeColor=#23445d;" vertex="1" parent="1">
          <mxGeometry x="100" y="310" width="120" height="60" as="geometry" />
        </mxCell>
        <mxCell id="uaOKmfhLv-BE1sPc9Rkf-6" value="图片验证码" style="rounded=0;whiteSpace=wrap;html=1;fillColor=#bac8d3;strokeColor=#23445d;" vertex="1" parent="1">
          <mxGeometry x="230" y="310" width="120" height="60" as="geometry" />
        </mxCell>
        <mxCell id="uaOKmfhLv-BE1sPc9Rkf-7" value="Oauth2.0" style="rounded=0;whiteSpace=wrap;html=1;fillColor=#bac8d3;strokeColor=#23445d;" vertex="1" parent="1">
          <mxGeometry x="360" y="310" width="120" height="60" as="geometry" />
        </mxCell>
        <mxCell id="uaOKmfhLv-BE1sPc9Rkf-8" value="认证token&lt;br&gt;csrft安全oken" style="rounded=0;whiteSpace=wrap;html=1;fillColor=#bac8d3;strokeColor=#23445d;" vertex="1" parent="1">
          <mxGeometry x="490" y="310" width="120" height="60" as="geometry" />
        </mxCell>
        <mxCell id="uaOKmfhLv-BE1sPc9Rkf-9" value="数据接口 UserDao" style="rounded=0;whiteSpace=wrap;html=1;fillColor=#d5e8d4;strokeColor=#82b366;" vertex="1" parent="1">
          <mxGeometry x="-10" y="390" width="630" height="40" as="geometry" />
        </mxCell>
        <mxCell id="uaOKmfhLv-BE1sPc9Rkf-13" value="&lt;font style=&quot;font-size: 12px&quot;&gt;用户登录服务SecurityService&lt;/font&gt;" style="text;html=1;strokeColor=none;fillColor=none;align=center;verticalAlign=middle;whiteSpace=wrap;rounded=0;" vertex="1" parent="1">
          <mxGeometry x="90" y="290" width="190" height="20" as="geometry" />
        </mxCell>
        <mxCell id="uaOKmfhLv-BE1sPc9Rkf-17" value="用户数据 User DB" style="shape=cylinder3;whiteSpace=wrap;html=1;boundedLbl=1;backgroundOutline=1;size=15;fillColor=#d5e8d4;strokeColor=#82b366;" vertex="1" parent="1">
          <mxGeometry x="-10" y="480" width="630" height="60" as="geometry" />
        </mxCell>
        <mxCell id="uaOKmfhLv-BE1sPc9Rkf-18" value="Redis/Session缓存" style="rounded=0;whiteSpace=wrap;html=1;fillColor=#d5e8d4;strokeColor=#82b366;" vertex="1" parent="1">
          <mxGeometry x="-10" y="435" width="630" height="35" as="geometry" />
        </mxCell>
        <mxCell id="uaOKmfhLv-BE1sPc9Rkf-22" value="" style="shape=curlyBracket;whiteSpace=wrap;html=1;rounded=1;" vertex="1" parent="1">
          <mxGeometry x="-40" y="230" width="20" height="150" as="geometry" />
        </mxCell>
        <mxCell id="uaOKmfhLv-BE1sPc9Rkf-23" value="" style="shape=curlyBracket;whiteSpace=wrap;html=1;rounded=1;" vertex="1" parent="1">
          <mxGeometry x="-40" y="390" width="20" height="140" as="geometry" />
        </mxCell>
        <mxCell id="uaOKmfhLv-BE1sPc9Rkf-24" value="" style="shape=curlyBracket;whiteSpace=wrap;html=1;rounded=1;size=0.5;" vertex="1" parent="1">
          <mxGeometry x="-40" y="165" width="20" height="50" as="geometry" />
        </mxCell>
        <mxCell id="uaOKmfhLv-BE1sPc9Rkf-25" value="接口层" style="text;html=1;strokeColor=none;fillColor=none;align=center;verticalAlign=middle;whiteSpace=wrap;rounded=0;fontSize=16;" vertex="1" parent="1">
          <mxGeometry x="-110" y="180" width="60" height="20" as="geometry" />
        </mxCell>
        <mxCell id="uaOKmfhLv-BE1sPc9Rkf-26" value="服务层" style="text;html=1;strokeColor=none;fillColor=none;align=center;verticalAlign=middle;whiteSpace=wrap;rounded=0;fontSize=16;" vertex="1" parent="1">
          <mxGeometry x="-100" y="295" width="50" height="20" as="geometry" />
        </mxCell>
        <mxCell id="uaOKmfhLv-BE1sPc9Rkf-27" value="数据层" style="text;html=1;strokeColor=none;fillColor=none;align=center;verticalAlign=middle;whiteSpace=wrap;rounded=0;fontSize=16;" vertex="1" parent="1">
          <mxGeometry x="-110" y="450" width="60" height="20" as="geometry" />
        </mxCell>
      </root>
    </mxGraphModel>
  </diagram>
</mxfile>
